<svg xmlns="http://www.w3.org/2000/svg" width="112" height="28" viewBox="0 0 112 28">
    <g data-name="그룹 6386">
        <g data-name="그룹 2085">
            <g data-name="그룹 2349">
                <path data-name="패스 896" d="M427.221 529.95v7.25a4.989 4.989 0 0 0 4.983 4.983h10.419v-3.624H432.2a1.361 1.361 0 0 1-1.359-1.359v-7.25a1.361 1.361 0 0 1 1.359-1.359h10.419v-3.624H432.2a4.987 4.987 0 0 0-4.979 4.983z" transform="translate(-405.741 -519.262)" style="fill:#5278ae"/>
            </g>
        </g>
        <path data-name="패스 897" d="M530.463 538.559h-9.506a1.359 1.359 0 0 1-1.357-1.359V529.951a1.36 1.36 0 0 1 1.359-1.359h6.341a1.359 1.359 0 0 1 1.354 1.359v1.359h-8.1v3.624h11.729v-4.983a4.976 4.976 0 0 0-2.984-4.564 4.771 4.771 0 0 0-1-.321 5 5 0 0 0-.992-.1h-6.345a4.986 4.986 0 0 0-4.978 4.982l-.009 7.249a4.989 4.989 0 0 0 4.98 4.983H532.29v-3.619z" transform="translate(-476.47 -519.262)" style="fill:#5278ae"/>
        <path data-name="패스 922" d="M801.963 542.18v-12.533a4.949 4.949 0 0 1 4.929-4.681h9.008v3.443h-9.009a1.486 1.486 0 0 0-1.487 1.416v.033a.287.287 0 0 0 0 .043v12.279zm3.437-7.345v-3.443h10.5v3.443z" transform="translate(-704.386 -519.26)" style="fill:#5278ae"/>
        <path data-name="패스 921" d="M720.43 542.18v-13.77h-5.944v-3.443h15.377v3.443H723.9v13.77z" transform="translate(-634.673 -519.262)" style="fill:#5278ae"/>
        <g data-name="그룹 2120">
            <g data-name="그룹 2350">
                <path data-name="패스 896-2" d="M625.718 529.95v7.25a4.989 4.989 0 0 0 4.983 4.983h10.419v-3.624H630.7a1.36 1.36 0 0 1-1.359-1.359v-7.25a1.36 1.36 0 0 1 1.359-1.359h10.42v-3.624H630.7a4.987 4.987 0 0 0-4.982 4.983z" transform="translate(-563.931 -519.262)" style="fill:#5278ae"/>
                <path data-name="사각형 3199" transform="translate(65.173 12.501)" style="fill:#5278ae" d="M0 0h12.015v3.622H0z"/>
            </g>
        </g>
        <path data-name="패스 898" d="M335.331 521.673c-1.829 0-2.869.345-3.742 1.952 0 0-7.735 13.565-8.207 14.1a2.691 2.691 0 0 1-1.843 1.2h5.436l3.08-5.547.091-.162a1.366 1.366 0 0 1 1.155-.647h4.438v-3.631h-3.218a239.198 239.198 0 0 1 1.7-3.05l.016-.024a1.371 1.371 0 0 1 1.1-.556h1.362V538.928h3.632V522.2a3.463 3.463 0 0 1 .491-1.346 2.783 2.783 0 0 1-2.231.823z" transform="translate(-321.445 -515.982)" style="fill:#5278ae"/>
    </g>
    <path data-name="사각형 5488" style="fill:none" d="M0 0h112v28H0z"/>
</svg>
